<?xml version="1.0" encoding="utf-8"?>
<!-- Svg Vector Icons : http://www.onlinewebfonts.com/icon -->
<!DOCTYPE svg PUBLIC "-//W3C//DTD SVG 1.1//EN" "http://www.w3.org/Graphics/SVG/1.1/DTD/svg11.dtd">
<svg version="1.1" xmlns="http://www.w3.org/2000/svg" xmlns:xlink="http://www.w3.org/1999/xlink" x="0px" y="0px" viewBox="0 0 1000 1000" enable-background="new 0 0 1000 1000" xml:space="preserve">
<metadata> Svg Vector Icons : http://www.onlinewebfonts.com/icon </metadata>
<g><g transform="translate(0.000000,511.000000) scale(0.100000,-0.100000)"><path d="M599.6,3908.6c-40.2-49.8-40.2-70.8-40.2-861.4v-811.7h-95.7H368v725.5c0,662.3-1.9,729.4-34.5,765.7c-36.4,47.9-126.3,57.4-191.4,23l-42.1-23v-985.9V1755l51.7-109.1c32.5-68.9,105.3-164.6,201-262.3L502,1232.4v-2308.7V-3383l45.9-95.7c53.6-114.9,107.2-166.6,222.1-218.2c224-101.5,476.7-11.5,597.3,210.6l44,84.2L1417-1082l3.8,2320.1l139.7,141.7c97.6,95.7,160.8,180,206.8,271.8l65.1,134l5.7,939.9l5.7,941.8L1798,3721c-63.2,70.8-155.1,72.7-218.2,0l-44-51.7v-717.9v-715.9H1440h-95.7v823.1c0,798.3-1.9,825.1-38.3,861.4c-23,23-63.2,38.3-105.3,38.3c-42.1,0-82.3-15.3-105.3-38.3c-36.4-36.4-38.3-63.2-38.3-861.4v-823.1h-95.7h-95.7v811.7c0,790.6,0,811.7-40.2,861.4c-30.6,38.3-55.5,49.8-112.9,49.8C655.2,3958.4,630.3,3946.9,599.6,3908.6z"/><path d="M5823.8,3765.1c-1152.4-130.2-2180.4-794.4-2768.1-1791.8c-673.8-1140.9-673.8-2584.3,0-3725.2c840.4-1424.3,2507.8-2107.7,4117.7-1686.5c844.2,220.1,1609.9,769.6,2105.7,1510.4c1137.1,1698,668.1,3991.3-1045.2,5115C7533.3,3644.5,6648.8,3857,5823.8,3765.1z M6834.5,3118C7784,2907.5,8544,2319.8,8976.7,1462.2c101.5-201,201-490.1,258.4-750.4c34.5-162.7,42.1-248.9,42.1-601.1c0-459.4-21.1-603-149.3-985.9c-348.4-1037.6-1267.3-1830.1-2356.5-2031.1c-287.1-53.6-884.4-49.8-1150.5,7.6c-409.7,88.1-840.4,275.7-1169.7,507.3c-220.1,155.1-576.2,513-737,740.8c-231.6,329.3-405.8,725.5-497.7,1142.9c-36.4,162.7-42.1,245-42.1,618.3c0,474.7,19.1,616.4,141.7,982c358,1068.2,1311.3,1868.4,2442.7,2052.1C6009.5,3185,6597.2,3169.7,6834.5,3118z"/><path d="M5929.1,1479.4c-486.2-107.2-878.7-461.4-1037.6-938c-47.9-137.8-51.7-179.9-51.7-430.7c0-250.8,3.8-292.9,51.7-430.7c70.8-216.3,172.3-377.1,338.8-547.5c254.6-258.4,557.1-396.3,909.3-413.5c783-42.1,1430,534.1,1477.9,1315.1c26.8,436.5-172.3,894-507.3,1160.1C6782.9,1454.5,6321.5,1565.5,5929.1,1479.4z M6555.1,824.7c168.5-78.5,306.3-216.3,384.8-384.8c57.4-118.7,61.3-143.6,61.3-329.3s-3.8-210.6-61.3-329.3c-78.5-168.5-216.3-306.3-382.9-384.8c-166.6-76.6-402-93.8-562.8-42.1c-633.7,204.8-760,1033.7-214.4,1408.9c149.3,103.4,260.3,134,465.2,126.3C6401.9,886,6444,876.4,6555.1,824.7z"/></g></g>
</svg>